<svg xmlns="http://www.w3.org/2000/svg" xmlns:xlink="http://www.w3.org/1999/xlink" version="1.1" id="Capa_1" x="0px" y="0px" viewBox="0 0 231.233 231.233" style="enable-background:new 0 0 231.233 231.233;" xml:space="preserve"  width="100%" height="100%" preserveAspectRatio="xMidYMid meet"><rect id="svgEditorBackground" x="0" y="0" width="231.23300170898438" height="231.23300170898438" style="fill: none; stroke: none;"/>
<path d="M230.5050048828125,102.77999877929688c-0.3650054931640625,-3.25,-4.156005859375,-5.694999694824219,-7.4340057373046875,-5.694999694824219c-10.593994140625,0,-19.996002197265625,-6.2180023193359375,-23.938995361328125,-15.842002868652344c-4.024993896484375,-9.854995727539062,-1.4279937744140625,-21.34600067138672,6.464996337890625,-28.586997985839844c2.4860076904296875,-2.272998809814453,2.78900146484375,-6.078998565673828,0.7050018310546875,-8.721000671386719c-5.4239959716796875,-6.8860015869140625,-11.58599853515625,-13.107000350952148,-18.315994262695312,-18.49799919128418c-2.63299560546875,-2.11199951171875,-6.5019989013671875,-1.8180007934570312,-8.787002563476562,0.7110004425048828c-6.8910064697265625,7.631999969482422,-19.270004272460938,10.467998504638672,-28.83599853515625,6.477001190185547c-9.951004028320312,-4.187000274658203,-16.23199462890625,-14.27400016784668,-15.615005493164062,-25.10099983215332c0.2030029296875,-3.4029998779296875,-2.285003662109375,-6.360000133514404,-5.675994873046875,-6.755000114440918c-8.637001037597656,-1,-17.349998474121094,-1.0290000438690186,-26.012001037597656,-0.06800001859664917c-3.3479995727539062,0.37000006437301636,-5.8339996337890625,3.256999969482422,-5.722999572753906,6.617000102996826c0.375,10.720998764038086,-5.976997375488281,20.6299991607666,-15.832000732421875,24.66699981689453c-9.451004028320312,3.8610000610351562,-21.743999481201172,1.0460014343261719,-28.621002197265625,-6.519001007080078c-2.272998809814453,-2.4920005798339844,-6.074001312255859,-2.7980003356933594,-8.724998474121094,-0.7310009002685547c-6.928001403808594,5.437000274658203,-13.229000091552734,11.66200065612793,-18.702999114990234,18.49199867248535c-2.1329994201660156,2.654998779296875,-1.8180007934570312,6.502998352050781,0.6889991760253906,8.784000396728516c8.048999786376953,7.28900146484375,10.644001007080078,18.87900161743164,6.465000152587891,28.849002838134766c-3.989999771118164,9.504997253417969,-13.859001159667969,15.627998352050781,-25.1560001373291,15.627998352050781c-3.6659998893737793,-0.1179962158203125,-6.275000095367432,2.345001220703125,-6.679999828338623,5.6790008544921875c-1.0160000324249268,8.682998657226562,-1.0269999504089355,17.534996032714844,-0.04900002479553223,26.28899383544922c0.36500000953674316,3.264007568359375,4.268000602722168,5.6880035400390625,7.581999778747559,5.6880035400390625c10.069998741149902,-0.2559967041015625,19.73200225830078,5.9739990234375,23.791000366210938,15.84100341796875c4.03900146484375,9.854995727539062,1.4389991760253906,21.34100341796875,-6.466999053955078,28.591995239257812c-2.4729995727539062,2.2729949951171875,-2.788999557495117,6.07000732421875,-0.7010002136230469,8.708999633789062c5.368999481201172,6.8430023193359375,11.536998748779297,13.0679931640625,18.286998748779297,18.5050048828125c2.6500015258789062,2.134002685546875,6.504001617431641,1.8350067138671875,8.80099868774414,-0.6970062255859375c6.917999267578125,-7.649993896484375,19.295001983642578,-10.481002807617188,28.822002410888672,-6.48199462890625c9.980003356933594,4.175994873046875,16.25800323486328,14.261993408203125,15.644996643066406,25.091995239257812c-0.20099639892578125,3.4029998779296875,2.292999267578125,6.3690032958984375,5.6719970703125,6.7550048828125c4.4199981689453125,0.516998291015625,8.862998962402344,0.7729949951171875,13.319999694824219,0.7729949951171875c4.230003356933594,0,8.46099853515625,-0.2310028076171875,12.691993713378906,-0.701995849609375c3.3520050048828125,-0.3699951171875,5.8339996337890625,-3.2599945068359375,5.7209930419921875,-6.621002197265625c-0.386993408203125,-10.71600341796875,5.97900390625,-20.626007080078125,15.822006225585938,-24.654998779296875c9.513992309570312,-3.8860015869140625,21.751998901367188,-1.0420074462890625,28.63299560546875,6.511993408203125c2.285003662109375,2.48699951171875,6.0630035400390625,2.78900146484375,8.725006103515625,0.7299957275390625c6.9160003662109375,-5.423004150390625,13.205001831054688,-11.645004272460938,18.7030029296875,-18.492996215820312c2.1349945068359375,-2.649993896484375,1.832000732421875,-6.5030059814453125,-0.688995361328125,-8.787994384765625c-8.0469970703125,-7.28399658203125,-10.656005859375,-18.878997802734375,-6.4770050048828125,-28.839004516601562c3.9279937744140625,-9.376998901367188,13.42999267578125,-15.673004150390625,23.649993896484375,-15.673004150390625l1.42999267578125,0.037994384765625c3.3179931640625,0.2689971923828125,6.36700439453125,-2.2859954833984375,6.76800537109375,-5.6710052490234375c1.0210113525390625,-8.69097900390625,1.032012939453125,-17.532974243164062,0.050018310546875,-26.28997802734375ZM115.61599731445312,182.27000427246094c-36.81300354003906,0,-66.65399932861328,-29.84100341796875,-66.65399932861328,-66.65299987792969s29.842002868652344,-66.65299987792969,66.65399932861328,-66.65299987792969s66.65399169921875,29.84100341796875,66.65399169921875,66.65299987792969c0,12.4949951171875,-3.44500732421875,24.1820068359375,-9.427993774414062,34.175994873046875l-29.186004638671875,-29.186996459960938c2.113006591796875,-4.982002258300781,3.22900390625,-10.383003234863281,3.227996826171875,-15.957000732421875c0,-10.915000915527344,-4.251007080078125,-21.176002502441406,-11.970001220703125,-28.89299774169922c-7.717002868652344,-7.717002868652344,-17.977996826171875,-11.966999053955078,-28.89099884033203,-11.966999053955078c-3.641998291015625,0,-7.266998291015625,0.4839973449707031,-10.774002075195312,1.4389991760253906c-1.5360031127929688,0.41899871826171875,-2.7919998168945312,1.68499755859375,-3.2009963989257812,3.2239990234375c-0.417999267578125,1.5739974975585938,0.05300140380859375,3.1869964599609375,1.2829971313476562,4.417999267578125c0,0,14.409004211425781,14.519996643066406,19.230003356933594,19.340003967285156c0.5049972534179688,0.5049972534179688,0.503997802734375,1.7099990844726562,0.4329986572265625,2.1439971923828125l-0.0449981689453125,0.3170013427734375c-0.48600006103515625,5.3000030517578125,-1.4229965209960938,11.662002563476562,-2.1959991455078125,14.107002258300781c-0.10399627685546875,0.102996826171875,-0.20200347900390625,0.19000244140625,-0.3079986572265625,0.29599761962890625c-0.11100006103515625,0.11100006103515625,-0.2129974365234375,0.2180023193359375,-0.31999969482421875,0.3280029296875c-2.4769973754882812,0.7949981689453125,-8.937004089355469,1.7429962158203125,-14.320999145507812,2.2249984741210938l0.00099945068359375,-0.02899932861328125l-0.24199676513671875,0.06099700927734375c-0.042999267578125,0.00499725341796875,-0.1230010986328125,0.0110015869140625,-0.22899627685546875,0.0110015869140625c-0.582000732421875,0,-1.4380035400390625,-0.16300201416015625,-2.21600341796875,-0.94000244140625c-5.017997741699219,-5.017997741699219,-18.86199951171875,-18.76300048828125,-18.86199951171875,-18.76300048828125c-1.2419967651367188,-1.2379989624023438,-2.5159988403320312,-1.4980010986328125,-3.3649978637695312,-1.4980010986328125c-1.9789962768554688,0,-3.7509994506835938,1.4300003051757812,-4.308998107910156,3.4810028076171875c-3.8110008239746094,14.102996826171875,0.22899627685546875,29.27300262451172,10.545997619628906,39.59099578857422c7.719001770019531,7.7180023193359375,17.981002807617188,11.968002319335938,28.89600372314453,11.968002319335938c5.573997497558594,0,10.974998474121094,-1.1150054931640625,15.956001281738281,-3.227996826171875l29.50299835205078,29.503005981445312c-10.358001708984375,6.62799072265625,-22.658004760742188,10.485992431640625,-35.86700439453125,10.485992431640625Z" fill="silver"/>
<g>
</g>
<g>
</g>
<g>
</g>
<g>
</g>
<g>
</g>
<g>
</g>
<g>
</g>
<g>
</g>
<g>
</g>
<g>
</g>
<g>
</g>
<g>
</g>
<g>
</g>
<g>
</g>
<g>
</g>
</svg>