<?xml version="1.0" encoding="UTF-8" standalone="no"?>
<!-- Generator: Adobe Illustrator 15.1.0, SVG Export Plug-In . SVG Version: 6.00 Build 0)  -->

<svg
   xmlns:i="http://ns.adobe.com/AdobeIllustrator/10.0/"
   xmlns:dc="http://purl.org/dc/elements/1.1/"
   xmlns:cc="http://creativecommons.org/ns#"
   xmlns:rdf="http://www.w3.org/1999/02/22-rdf-syntax-ns#"
   xmlns:svg="http://www.w3.org/2000/svg"
   xmlns="http://www.w3.org/2000/svg"
   xmlns:sodipodi="http://sodipodi.sourceforge.net/DTD/sodipodi-0.dtd"
   xmlns:inkscape="http://www.inkscape.org/namespaces/inkscape"
   version="1.1"
   id="Layer_1"
   x="0px"
   y="0px"
   width="1289.8578"
   height="1296.3058"
   viewBox="0 0 1289.8578 1296.3058"
   xml:space="preserve"
   inkscape:version="0.91 r13725"
   sodipodi:docname="icon-moon.svg"><metadata
     id="metadata35"><rdf:RDF><cc:Work
         rdf:about=""><dc:format>image/svg+xml</dc:format><dc:type
           rdf:resource="http://purl.org/dc/dcmitype/StillImage" /><dc:title /></cc:Work></rdf:RDF></metadata><defs
     id="defs33" /><sodipodi:namedview
     pagecolor="#ffffff"
     bordercolor="#666666"
     borderopacity="1"
     objecttolerance="10"
     gridtolerance="10"
     guidetolerance="10"
     inkscape:pageopacity="0"
     inkscape:pageshadow="2"
     inkscape:window-width="1920"
     inkscape:window-height="1009"
     id="namedview31"
     showgrid="false"
     inkscape:zoom="0.84285714"
     inkscape:cx="827.0533"
     inkscape:cy="753.69372"
     inkscape:window-x="0"
     inkscape:window-y="0"
     inkscape:window-maximized="1"
     inkscape:current-layer="g3"
     fit-margin-top="0"
     fit-margin-left="0"
     fit-margin-right="0"
     fit-margin-bottom="0" /><g
     id="g3"
     transform="translate(574.61758,576.90304)"><path
       style="fill:#f2f2f2"
       d="m 67.198361,658.75117 c -330.840001,0 -600.000001,-269.16 -600.000001,-599.999998 0,-330.840002 269.16,-600.000002 600.000001,-600.000002 330.829999,0 599.999999,269.16 599.999999,600.000002 0,330.839998 -269.16,599.999998 -599.999999,599.999998 z"
       id="path5"
       inkscape:connector-curvature="0" /><circle
       style="fill:#263a44"
       cx="67.198364"
       cy="58.751171"
       r="580.64001"
       id="circle7" /><g
       id="g9"
       transform="matrix(10,0,0,10,-632.80164,-641.24883)"><path
         style="fill:#e6e6e6"
         d="m 70.697,105.691 c -17.933,0 -32.521,-14.914 -32.521,-33.246 0,-18.333 14.589,-33.247 32.521,-33.247 17.932,0 32.521,14.914 32.521,33.247 0,18.332 -14.588,33.246 -32.521,33.246 z"
         id="path11"
         inkscape:connector-curvature="0" /><path
         style="fill:#cccccc"
         d="m 82.713,41.56 c 6.027,6.039 9.775,14.444 9.775,23.732 0,18.333 -14.588,33.248 -32.521,33.248 -4.244,0 -8.296,-0.844 -12.016,-2.362 5.869,5.881 13.898,9.516 22.746,9.516 17.933,0 32.521,-14.915 32.521,-33.247 0,-13.998 -8.504,-25.99 -20.505,-30.887 z"
         id="path13"
         inkscape:connector-curvature="0" /><ellipse
         style="fill:#cccccc"
         cx="49.057999"
         cy="70.741997"
         rx="3.329"
         ry="3.405"
         id="ellipse15" /><ellipse
         style="fill:#cccccc"
         cx="59.046001"
         cy="57.120998"
         rx="4.994"
         ry="5.1079998"
         id="ellipse17" /><path
         style="fill:#cccccc"
         d="m 72.361,84.363 c 0,5.639 -4.473,10.216 -9.986,10.216 -5.514,0 -9.988,-4.577 -9.988,-10.216 0,-5.642 4.474,-10.217 9.988,-10.217 5.514,0 9.986,4.577 9.986,10.217 z"
         id="path21"
         inkscape:connector-curvature="0" /><path
         style="fill:#b3b3b3"
         d="m 46.623,71.636 c 0,-1.881 1.49,-3.404 3.329,-3.404 0.679,0 1.308,0.208 1.834,0.565 -0.601,-0.881 -1.596,-1.46 -2.728,-1.46 -1.838,0 -3.329,1.523 -3.329,3.405 0,1.188 0.595,2.23 1.496,2.84 -0.377,-0.552 -0.602,-1.221 -0.602,-1.946 z"
         id="path23"
         inkscape:connector-curvature="0" /><path
         style="fill:#b3b3b3"
         d="m 54.946,58.015 c 0,-2.819 2.238,-5.107 4.995,-5.107 1.135,0 2.178,0.392 3.018,1.046 -0.914,-1.18 -2.326,-1.94 -3.912,-1.94 -2.757,0 -4.995,2.288 -4.995,5.107 0,1.66 0.778,3.129 1.976,4.062 -0.676,-0.872 -1.082,-1.971 -1.082,-3.168 z"
         id="path25"
         inkscape:connector-curvature="0" /><path
         style="fill:#b3b3b3"
         d="m 53.281,85.257 c 0,-5.64 4.475,-10.216 9.988,-10.216 2.478,0 4.742,0.93 6.488,2.46 -1.827,-2.056 -4.453,-3.354 -7.382,-3.354 -5.514,0 -9.988,4.576 -9.988,10.217 0,3.104 1.361,5.881 3.499,7.755 -1.612,-1.815 -2.605,-4.219 -2.605,-6.862 z"
         id="path27"
         inkscape:connector-curvature="0" /><path
         inkscape:connector-curvature="0"
         style="fill:none"
         d="m 5.8184064,71.249582 c 0,-35.825542 28.8453196,-64.8150025 64.4927476,-64.8150025 35.647696,0 64.493026,28.9894605 64.493026,64.8152935 0,35.825837 -28.84533,64.815287 -64.493026,64.815287 C 34.663726,136.06487 5.8184064,107.07541 5.8184064,71.249582 Z"
         i:knockout="Off"
         id="path17" /><g
         transform="matrix(0.28890974,0,0,0.29035337,5.0961263,5.7287305)"
         id="g21"><g
           i:knockout="Off"
           id="g23"><g
             id="g25"><path
               style="fill:none"
               inkscape:connector-curvature="0"
               d="m 225.728,409.728 0,28.53"
               i:knockout="Off"
               id="path27-3" /><path
               inkscape:connector-curvature="0"
               d="m 220.728,409.728 c 0,9.51 0,19.021 0,28.53 0,6.448 10,6.448 10,0 0,-9.51 0,-19.021 0,-28.53 0,-6.449 -10,-6.449 -10,0 z"
               i:knockout="Off"
               id="path29" /></g></g><g
           i:knockout="Off"
           id="g31"><g
             id="g33"><path
               style="fill:none"
               inkscape:connector-curvature="0"
               d="m 134.538,385.345 -15.109,24.47"
               i:knockout="Off"
               id="path35" /><path
               inkscape:connector-curvature="0"
               d="m 130.221,382.821 c -5.036,8.156 -10.073,16.313 -15.109,24.47 -3.398,5.503 5.254,10.521 8.635,5.047 5.036,-8.156 10.073,-16.313 15.109,-24.47 3.397,-5.503 -5.255,-10.521 -8.635,-5.047 z"
               i:knockout="Off"
               id="path37" /></g></g><g
           i:knockout="Off"
           id="g39"><g
             id="g41"><path
               style="fill:none"
               inkscape:connector-curvature="0"
               d="m 66.323,317.21 -24.75,14.748"
               i:knockout="Off"
               id="path43" /><path
               inkscape:connector-curvature="0"
               d="m 63.799,312.893 c -8.25,4.916 -16.5,9.832 -24.75,14.748 -5.533,3.297 -0.506,11.944 5.047,8.635 8.25,-4.916 16.5,-9.832 24.75,-14.748 5.533,-3.298 0.507,-11.945 -5.047,-8.635 z"
               i:knockout="Off"
               id="path45" /></g></g><g
           i:knockout="Off"
           id="g47"><g
             id="g49"><path
               style="fill:none"
               inkscape:connector-curvature="0"
               d="m 41.225,225.659 -28.095,0"
               i:knockout="Off"
               id="path51" /><path
               inkscape:connector-curvature="0"
               d="m 41.225,220.659 c -9.365,0 -18.73,0 -28.095,0 -6.449,0 -6.449,10 0,10 9.365,0 18.73,0 28.095,0 6.448,0 6.448,-10 0,-10 z"
               i:knockout="Off"
               id="path53" /></g></g><g
           i:knockout="Off"
           id="g55"><g
             id="g57"><path
               style="fill:none"
               inkscape:connector-curvature="0"
               d="M 66.683,133.312 41.573,119.36"
               i:knockout="Off"
               id="path59" /><path
               inkscape:connector-curvature="0"
               d="m 69.207,128.995 c -8.37,-4.651 -16.74,-9.301 -25.11,-13.952 -5.642,-3.135 -10.684,5.503 -5.047,8.635 8.37,4.651 16.74,9.301 25.11,13.952 5.641,3.134 10.683,-5.504 5.047,-8.635 z"
               i:knockout="Off"
               id="path61" /></g></g><g
           i:knockout="Off"
           id="g63"><g
             id="g65"><path
               style="fill:none"
               inkscape:connector-curvature="0"
               d="M 133.101,65.715 119.43,41.504"
               i:knockout="Off"
               id="path67" /><path
               inkscape:connector-curvature="0"
               d="m 137.418,63.192 c -4.557,-8.071 -9.114,-16.141 -13.671,-24.211 -3.17,-5.614 -11.81,-0.576 -8.635,5.047 4.557,8.071 9.114,16.141 13.671,24.211 3.17,5.614 11.81,0.575 8.635,-5.047 z"
               i:knockout="Off"
               id="path69" /></g></g><g
           i:knockout="Off"
           id="g71"><g
             id="g73"><path
               style="fill:none"
               inkscape:connector-curvature="0"
               d="m 225.728,41.224 0,-28.163"
               i:knockout="Off"
               id="path75" /><path
               inkscape:connector-curvature="0"
               d="m 230.728,41.224 c 0,-9.388 0,-18.775 0,-28.163 0,-6.449 -10,-6.449 -10,0 0,9.388 0,18.775 0,28.163 0,6.448 10,6.448 10,0 z"
               i:knockout="Off"
               id="path77" /></g></g><g
           i:knockout="Off"
           id="g79"><g
             id="g81"><path
               style="fill:none"
               inkscape:connector-curvature="0"
               d="M 318.534,66.512 332.028,41.504"
               i:knockout="Off"
               id="path83" /><path
               inkscape:connector-curvature="0"
               d="m 322.851,69.035 c 4.498,-8.336 8.996,-16.672 13.494,-25.008 3.062,-5.674 -5.572,-10.723 -8.635,-5.047 -4.498,8.336 -8.996,16.672 -13.494,25.008 -3.061,5.675 5.573,10.723 8.635,5.047 z"
               i:knockout="Off"
               id="path85" /></g></g><g
           i:knockout="Off"
           id="g87"><g
             id="g89"><path
               style="fill:none"
               inkscape:connector-curvature="0"
               d="m 385.133,134.109 24.75,-14.749"
               i:knockout="Off"
               id="path91" /><path
               inkscape:connector-curvature="0"
               d="m 387.657,138.426 c 8.25,-4.917 16.5,-9.833 24.75,-14.749 5.532,-3.297 0.507,-11.944 -5.047,-8.635 -8.25,4.917 -16.5,9.833 -24.75,14.749 -5.532,3.297 -0.507,11.945 5.047,8.635 z"
               i:knockout="Off"
               id="path93" /></g></g><g
           i:knockout="Off"
           id="g95"><g
             id="g97"><path
               style="fill:none"
               inkscape:connector-curvature="0"
               d="m 409.729,225.659 28.598,0"
               i:knockout="Off"
               id="path99" /><path
               inkscape:connector-curvature="0"
               d="m 409.729,230.659 c 9.532,0 19.065,0 28.598,0 6.448,0 6.448,-10 0,-10 -9.532,0 -19.065,0 -28.598,0 -6.448,0 -6.448,10 0,10 z"
               i:knockout="Off"
               id="path101" /></g></g><g
           i:knockout="Off"
           id="g103"><g
             id="g105"><path
               style="fill:none"
               inkscape:connector-curvature="0"
               d="m 385.494,318.028 24.39,13.93"
               i:knockout="Off"
               id="path107" /><path
               inkscape:connector-curvature="0"
               d="m 382.97,322.346 c 8.13,4.644 16.26,9.286 24.39,13.93 5.608,3.203 10.645,-5.438 5.047,-8.635 -8.13,-4.644 -16.26,-9.286 -24.39,-13.93 -5.608,-3.203 -10.644,5.437 -5.047,8.635 z"
               i:knockout="Off"
               id="path109" /></g></g><g
           i:knockout="Off"
           id="g111"><g
             id="g113"><path
               style="fill:none"
               inkscape:connector-curvature="0"
               d="m 317.817,384.526 14.211,25.288"
               i:knockout="Off"
               id="path115" /><path
               inkscape:connector-curvature="0"
               d="m 313.5,387.05 c 4.737,8.43 9.474,16.859 14.211,25.288 3.159,5.621 11.798,0.581 8.635,-5.047 -4.737,-8.43 -9.474,-16.858 -14.211,-25.288 -3.16,-5.621 -11.799,-0.581 -8.635,5.047 z"
               i:knockout="Off"
               id="path117" /></g></g></g><g
         transform="matrix(0.28890974,0,0,0.29035337,5.0961263,5.7287305)"
         id="g119"><g
           i:knockout="Off"
           id="g121"><g
             id="g123"><path
               style="fill:none"
               inkscape:connector-curvature="0"
               d="m 226.879,225.401 -0.701,0"
               i:knockout="Off"
               id="path125" /><path
               inkscape:connector-curvature="0"
               d="m 226.879,212.901 c -0.233,0 -0.467,0 -0.701,0 -6.814,0 -12.5,5.686 -12.5,12.5 0,6.814 5.686,12.5 12.5,12.5 0.233,0 0.467,0 0.701,0 6.814,0 12.5,-5.686 12.5,-12.5 0,-6.814 -5.685,-12.5 -12.5,-12.5 z"
               i:knockout="Off"
               id="path127" /></g></g></g></g></g></svg>